<svg width="939" height="537" viewBox="0 0 939 537" fill="none" xmlns="http://www.w3.org/2000/svg">
<path d="M176.076 315.884C178.607 315.884 180.553 317.052 181.916 319.388C183.473 321.724 184.252 324.936 184.252 329.024C184.252 336.811 182.403 342.845 178.704 347.128C169.749 357.445 160.503 365.913 150.964 372.532C141.62 379.151 130.913 382.46 118.844 382.46C108.916 382.46 101.421 379.637 96.36 373.992C91.2987 368.152 88.768 359.781 88.768 348.88C88.768 343.429 90.1307 333.696 92.856 319.68C95.3867 307.416 96.652 298.948 96.652 294.276C96.652 291.161 95.5813 289.604 93.44 289.604C90.9093 289.604 87.308 292.913 82.636 299.532C77.964 305.956 73.292 314.521 68.62 325.228C63.948 335.935 60.152 347.225 57.232 359.1C53.5333 374.673 44.384 382.46 29.784 382.46C23.944 382.46 20.0507 380.416 18.104 376.328C16.352 372.045 15.476 364.453 15.476 353.552C15.476 347.323 15.5733 342.359 15.768 338.66L16.06 315.3C16.06 285.321 19.0773 254.077 25.112 221.568C31.3413 189.059 40.3933 161.805 52.268 139.808C64.3373 117.616 78.7427 106.52 95.484 106.52C104.439 106.52 111.641 110.413 117.092 118.2C122.737 125.792 125.56 135.72 125.56 147.984C125.56 167.645 119.817 188.085 108.332 209.304C96.8467 230.328 78.1587 254.953 52.268 283.18C51.684 293.303 51.392 303.717 51.392 314.424C57.816 297.877 64.9213 284.445 72.708 274.128C80.6893 263.616 88.476 256.121 96.068 251.644C103.855 247.167 110.96 244.928 117.384 244.928C130.037 244.928 136.364 251.255 136.364 263.908C136.364 271.5 134.223 285.224 129.94 305.08C126.241 322.016 124.392 333.209 124.392 338.66C124.392 346.447 127.215 350.34 132.86 350.34C136.753 350.34 141.328 348.004 146.584 343.332C152.035 338.465 159.237 330.679 168.192 319.972C170.528 317.247 173.156 315.884 176.076 315.884ZM89.352 135.428C85.848 135.428 81.9547 140.489 77.672 150.612C73.3893 160.54 69.204 174.069 65.116 191.2C61.2227 208.136 58.0107 226.629 55.48 246.68C67.5493 232.469 77.4773 216.993 85.264 200.252C93.2453 183.511 97.236 168.327 97.236 154.7C97.236 148.471 96.5547 143.701 95.192 140.392C93.8293 137.083 91.8827 135.428 89.352 135.428ZM290.818 315.884C293.349 315.884 295.296 317.052 296.658 319.388C298.216 321.724 298.994 324.936 298.994 329.024C298.994 336.811 297.145 342.845 293.446 347.128C286.244 355.888 276.024 363.967 262.786 371.364C249.744 378.761 235.728 382.46 220.738 382.46C200.298 382.46 184.433 376.912 173.142 365.816C161.852 354.72 156.206 339.536 156.206 320.264C156.206 306.832 159.029 294.373 164.674 282.888C170.32 271.208 178.106 261.961 188.034 255.148C198.157 248.335 209.545 244.928 222.198 244.928C233.489 244.928 242.541 248.335 249.354 255.148C256.168 261.767 259.574 270.819 259.574 282.304C259.574 295.736 254.708 307.319 244.974 317.052C235.436 326.591 219.181 334.183 196.21 339.828C201.077 348.783 210.324 353.26 223.95 353.26C232.71 353.26 242.638 350.243 253.734 344.208C265.025 337.979 274.758 329.9 282.934 319.972C285.27 317.247 287.898 315.884 290.818 315.884ZM217.234 273.544C210.032 273.544 203.9 277.729 198.838 286.1C193.972 294.471 191.538 304.593 191.538 316.468V317.052C203.024 314.327 212.076 310.239 218.694 304.788C225.313 299.337 228.622 293.011 228.622 285.808C228.622 282.109 227.552 279.189 225.41 277.048C223.464 274.712 220.738 273.544 217.234 273.544ZM309.709 382.46C297.64 382.46 288.004 378.08 280.801 369.32C273.599 360.56 269.997 349.075 269.997 334.864C269.997 319.291 273.599 304.593 280.801 290.772C288.004 276.756 297.543 265.563 309.417 257.192C321.487 248.627 334.237 244.344 347.669 244.344C351.952 244.344 354.775 245.22 356.137 246.972C357.695 248.529 358.96 251.449 359.933 255.732C364.021 254.953 368.304 254.564 372.781 254.564C382.32 254.564 387.089 257.971 387.089 264.784C387.089 268.872 385.629 278.605 382.709 293.984C378.232 316.371 375.993 331.944 375.993 340.704C375.993 343.624 376.675 345.96 378.037 347.712C379.595 349.464 381.541 350.34 383.877 350.34C387.576 350.34 392.053 348.004 397.309 343.332C402.565 338.465 409.671 330.679 418.625 319.972C420.961 317.247 423.589 315.884 426.509 315.884C429.04 315.884 430.987 317.052 432.349 319.388C433.907 321.724 434.685 324.936 434.685 329.024C434.685 336.811 432.836 342.845 429.137 347.128C421.156 357.056 412.688 365.427 403.733 372.24C394.779 379.053 386.116 382.46 377.745 382.46C371.321 382.46 365.384 380.319 359.933 376.036C354.677 371.559 350.687 365.524 347.961 357.932C337.839 374.284 325.088 382.46 309.709 382.46ZM320.221 352.968C324.504 352.968 328.592 350.437 332.485 345.376C336.379 340.315 339.201 333.599 340.953 325.228L351.757 271.5C343.581 271.695 335.989 274.809 328.981 280.844C322.168 286.684 316.717 294.471 312.629 304.204C308.541 313.937 306.497 324.255 306.497 335.156C306.497 341.191 307.665 345.668 310.001 348.588C312.532 351.508 315.939 352.968 320.221 352.968ZM521.622 315.884C524.152 315.884 526.099 317.052 527.462 319.388C529.019 321.724 529.798 324.936 529.798 329.024C529.798 336.811 527.948 342.845 524.25 347.128C515.879 357.445 506.73 365.913 496.802 372.532C487.068 379.151 475.972 382.46 463.514 382.46C446.383 382.46 433.632 374.673 425.262 359.1C417.086 343.527 412.998 323.379 412.998 298.656C412.998 274.907 416.015 247.848 422.05 217.48C428.279 187.112 437.331 161.027 449.206 139.224C461.275 117.421 475.583 106.52 492.13 106.52C501.474 106.52 508.774 110.9 514.03 119.66C519.48 128.225 522.206 140.587 522.206 156.744C522.206 179.909 515.782 206.773 502.934 237.336C490.086 267.899 472.663 298.169 450.666 328.148C452.028 336.129 454.267 341.872 457.382 345.376C460.496 348.685 464.584 350.34 469.646 350.34C477.627 350.34 484.635 348.101 490.67 343.624C496.704 338.952 504.394 331.068 513.738 319.972C516.074 317.247 518.702 315.884 521.622 315.884ZM485.706 135.428C481.228 135.428 476.167 143.507 470.522 159.664C464.876 175.821 459.912 195.872 455.63 219.816C451.347 243.76 449.011 266.731 448.622 288.728C462.443 265.952 473.442 243.176 481.618 220.4C489.794 197.429 493.882 176.503 493.882 157.62C493.882 142.825 491.156 135.428 485.706 135.428ZM636.428 315.884C638.958 315.884 640.905 317.052 642.268 319.388C643.825 321.724 644.604 324.936 644.604 329.024C644.604 336.811 642.754 342.845 639.056 347.128C630.685 357.445 621.536 365.913 611.608 372.532C601.68 379.151 590.292 382.46 577.444 382.46C537.732 382.46 517.876 354.525 517.876 298.656C517.876 290.091 518.168 281.428 518.752 272.668H507.364C501.524 272.668 497.533 271.597 495.392 269.456C493.445 267.315 492.472 263.908 492.472 259.236C492.472 248.335 496.852 242.884 505.612 242.884H522.256C525.565 221.471 530.626 201.907 537.44 184.192C544.253 166.477 552.429 152.364 561.968 141.852C571.701 131.34 582.116 126.084 593.212 126.084C601.388 126.084 607.812 129.685 612.484 136.888C617.156 144.091 619.492 153.143 619.492 164.044C619.492 194.217 606.838 220.497 581.532 242.884H614.236C617.35 242.884 619.589 243.565 620.952 244.928C622.314 246.291 622.996 248.821 622.996 252.52C622.996 265.952 611.997 272.668 590 272.668H554.376C553.986 282.401 553.792 289.993 553.792 295.444C553.792 315.689 556.128 329.9 560.8 338.076C565.666 346.252 573.258 350.34 583.576 350.34C591.946 350.34 599.344 347.809 605.768 342.748C612.192 337.687 619.784 330.095 628.544 319.972C630.88 317.247 633.508 315.884 636.428 315.884ZM585.328 154.116C582.408 154.116 579.098 157.815 575.4 165.212C571.896 172.415 568.489 182.537 565.18 195.58C562.065 208.428 559.437 222.736 557.296 238.504C568.781 228.576 577.346 217.48 582.992 205.216C588.832 192.757 591.752 181.467 591.752 171.344C591.752 159.859 589.61 154.116 585.328 154.116ZM724.197 244.928C730.426 244.928 735.098 246.583 738.213 249.892C741.522 253.007 743.177 257.679 743.177 263.908C743.177 268.969 742.106 278.508 739.965 292.524C738.018 304.399 736.461 315.689 735.293 326.396C734.125 336.908 733.541 348.685 733.541 361.728C733.541 369.125 731.983 374.479 728.869 377.788C725.949 380.903 721.082 382.46 714.269 382.46C707.845 382.46 703.173 380.805 700.253 377.496C697.333 374.187 695.873 369.223 695.873 362.604C695.873 354.817 697.235 341.969 699.961 324.06C702.297 308.487 703.465 298.559 703.465 294.276C703.465 291.161 702.394 289.604 700.253 289.604C697.722 289.604 694.121 292.913 689.449 299.532C684.777 305.956 680.105 314.521 675.433 325.228C670.761 335.935 666.965 347.225 664.045 359.1C661.903 368.249 659.373 374.479 656.453 377.788C653.727 380.903 649.347 382.46 643.312 382.46C637.278 382.46 632.801 380.319 629.881 376.036C627.155 371.559 625.306 364.745 624.333 355.596C623.359 346.447 622.873 333.015 622.873 315.3C622.873 285.321 625.89 254.077 631.925 221.568C638.154 189.059 647.206 161.805 659.081 139.808C671.15 117.616 685.555 106.52 702.297 106.52C711.251 106.52 718.454 110.413 723.905 118.2C729.55 125.792 732.373 135.72 732.373 147.984C732.373 167.645 726.63 188.085 715.145 209.304C703.659 230.328 684.971 254.953 659.081 283.18C658.497 293.303 658.205 303.717 658.205 314.424C664.629 297.877 671.734 284.445 679.521 274.128C687.502 263.616 695.289 256.121 702.881 251.644C710.667 247.167 717.773 244.928 724.197 244.928ZM696.165 135.428C692.661 135.428 688.767 140.489 684.485 150.612C680.202 160.54 676.017 174.069 671.929 191.2C668.035 208.136 664.823 226.629 662.293 246.68C674.362 232.469 684.29 216.993 692.077 200.252C700.058 183.511 704.049 168.327 704.049 154.7C704.049 148.471 703.367 143.701 702.005 140.392C700.642 137.083 698.695 135.428 696.165 135.428Z" fill="#1888AC"/>
<path d="M735.324 346.979C735.324 346.979 745.189 360.5 770.416 336.776C772.941 342.578 779.114 356.048 779.114 356.048C779.114 356.048 763.21 388.939 717.805 383.625C717.743 373.57 735.324 346.979 735.324 346.979Z" fill="#1888AC"/>
<path d="M816.847 387.539C816.847 387.539 837.309 468.476 796.84 507.126C794.112 510.309 776.833 537.137 735.455 534.863C732.272 533.499 686.063 523.496 717.805 468.022C720.904 465.293 764.101 412.548 832.307 470.295C836.399 473.478 850.95 490.302 871.412 471.205" stroke="#1888AC" stroke-width="4" stroke-miterlimit="10"/>
<path d="M762.421 269.203C762.421 269.203 764.429 251.662 777.913 241.236C780.769 239.432 797.888 223.346 823.53 239.727C822.922 237.802 827.669 234.492 827.669 234.492C827.669 234.492 791.918 209.68 765.556 244.696C764.669 246.776 744.742 274.594 758.648 317.652C759.11 320.115 768.026 339.871 768.026 339.871C769.07 339.293 774.694 335.946 774.694 335.946C774.694 335.946 754.578 305.401 762.653 268.064" fill="#B3DDF2"/>
<path d="M839.753 251.44C834.177 257.311 833.169 250.349 828.571 245.711C823.973 241.076 817.16 241.276 823.1 234.645C828.811 228.268 831.252 235.358 835.854 239.996C840.455 244.634 846.286 244.587 839.753 251.44Z" fill="#106276"/>
<path d="M927.835 316.59C927.835 316.59 935.416 300.642 929.498 284.659C928.039 281.621 922.026 258.904 891.601 259.228C893.132 257.918 890.87 252.596 890.87 252.596C890.87 252.596 934.332 250.476 938.155 294.135C937.806 296.368 939.978 330.518 905.387 359.681C903.681 361.526 885.664 373.566 885.664 373.566C885.089 372.526 882.081 366.713 882.081 366.713C882.081 366.713 915.325 351.449 928.246 315.499" fill="#B2DDF2"/>
<path d="M871.638 260.574C873.271 268.511 877.8 263.135 884.151 261.632C890.51 260.137 896.192 263.917 894.664 255.147C893.183 246.714 887.363 251.433 881.008 252.931C874.653 254.43 869.728 251.302 871.638 260.574Z" fill="#106276"/>
<path d="M773.224 336.819C773.224 336.819 776.426 336.008 779.092 341.439C779.823 342.956 799.601 371.657 814.417 379.984C815.283 380.526 819.859 384.894 826.138 383.341C827.847 382.955 862.023 376.128 877.025 367.015C877.465 366.993 879.942 364.982 881.946 367.648C883.052 368.569 885.664 373.57 885.664 373.57C885.664 373.57 885.431 375.837 882.463 377.026C880.768 377.852 840.488 396.342 822.278 393.752C820.936 393.37 810.961 390.511 810.961 390.511C810.961 390.511 777.826 373.101 768.066 344.837C767.837 343.611 766.706 342.399 768.626 339.529C770.081 338.678 773.224 336.819 773.224 336.819Z" fill="#1888AC"/>
<path d="M846.167 285.75C846.167 285.75 841.63 266.958 820.587 268.511C819.412 268.562 807.986 267.038 797.677 287.413C797.095 288.795 786.887 308.809 814.173 338.401C814.814 339.555 818.408 344.665 825.796 351.446C826.432 352.603 830.31 357.404 836.028 354.382C839.826 353.33 867.527 346.881 877.934 337.034C879.069 335.804 891.663 331.835 895.846 305.037C895.202 302.523 891.171 287.449 877.858 283.015C876.384 282.745 863.111 278.169 852.809 286.296C851.838 286.983 847.88 290.097 846.167 285.75Z" fill="#E62044"/>
<path d="M885.66 480.71C898.807 480.71 909.465 470.378 909.465 457.633C909.465 444.888 898.807 434.556 885.66 434.556C872.513 434.556 861.855 444.888 861.855 457.633C861.855 470.378 872.513 480.71 885.66 480.71Z" fill="#1888AC"/>
<path d="M885.66 476.276C896.282 476.276 904.893 467.929 904.893 457.633C904.893 447.337 896.282 438.99 885.66 438.99C875.039 438.99 866.428 447.337 866.428 457.633C866.428 467.929 875.039 476.276 885.66 476.276Z" fill="#B3DDF2"/>
<path d="M885.66 468.859C892.057 468.859 897.243 463.833 897.243 457.633C897.243 451.433 892.057 446.407 885.66 446.407C879.264 446.407 874.078 451.433 874.078 457.633C874.078 463.833 879.264 468.859 885.66 468.859Z" fill="#0F6376"/>
<path d="M885.664 466.13C890.506 466.13 894.431 462.326 894.431 457.633C894.431 452.94 890.506 449.135 885.664 449.135C880.822 449.135 876.897 452.94 876.897 457.633C876.897 462.326 880.822 466.13 885.664 466.13Z" fill="#D4ECF2"/>
</svg>
